<?xml version="1.0" standalone="no"?>
<!DOCTYPE svg PUBLIC "-//W3C//DTD SVG 20010904//EN"
 "http://www.w3.org/TR/2001/REC-SVG-20010904/DTD/svg10.dtd">
<svg version="1.0" xmlns="http://www.w3.org/2000/svg"
 width="512.000000pt" height="512.000000pt" viewBox="0 0 512.000000 512.000000"
 preserveAspectRatio="xMidYMid meet">
<metadata>
Created by potrace 1.14, written by Peter Selinger 2001-2017
</metadata>
<g transform="translate(0.000000,512.000000) scale(0.100000,-0.100000)"
fill="#000000" stroke="none">
<path d="M2378 5115 c-2 -1 -34 -5 -73 -9 -38 -3 -97 -10 -130 -16 -33 -6 -76
-13 -95 -16 -106 -17 -413 -105 -434 -125 -6 -5 -16 -9 -23 -9 -29 0 -251
-109 -387 -190 -380 -227 -710 -573 -926 -970 -106 -195 -218 -491 -244 -643
-3 -15 -7 -35 -10 -45 -3 -9 -7 -34 -11 -56 -3 -21 -7 -41 -9 -45 -4 -6 -12
-72 -26 -201 -8 -84 -5 -454 4 -515 30 -184 38 -229 52 -290 52 -226 166 -519
270 -692 10 -17 36 -60 57 -95 47 -78 164 -236 236 -318 319 -363 727 -627
1188 -769 231 -71 436 -102 703 -106 226 -3 350 8 545 47 55 11 110 22 123 24
37 7 320 103 370 125 481 216 859 531 1135 945 193 291 337 655 393 994 38
235 40 574 5 805 -130 854 -704 1608 -1486 1951 -44 20 -89 40 -100 45 -73 33
-369 118 -465 133 -19 3 -46 8 -60 10 -112 21 -214 29 -392 31 -113 2 -208 2
-210 0z m284 -769 c89 -8 237 -56 317 -103 352 -210 507 -609 384 -995 -81
-255 -281 -458 -533 -541 -100 -33 -136 -39 -259 -42 -145 -3 -286 30 -410 97
-360 194 -530 619 -404 1008 102 316 385 546 708 576 39 4 71 8 73 9 1 1 15 1
30 0 15 -2 57 -6 94 -9z m546 -2109 c18 -4 73 -20 122 -36 332 -112 567 -427
575 -771 3 -131 -27 -211 -110 -296 -46 -47 -279 -214 -299 -214 -3 0 -27 -13
-53 -28 -96 -56 -331 -148 -425 -166 -13 -2 -45 -9 -73 -16 -27 -6 -68 -13
-90 -16 -22 -3 -51 -8 -65 -11 -38 -9 -400 -11 -435 -2 -16 4 -52 10 -80 12
-156 15 -417 101 -595 196 -129 68 -336 214 -380 268 -67 80 -88 150 -85 271
3 110 8 142 37 227 45 134 94 218 189 319 125 134 269 215 454 256 73 17 135
18 680 16 330 -2 615 -6 633 -9z"/>
</g>
</svg>
